# xmcd CD database file
#
# Track frame offsets:
#	150
#	23169
#	60700
#	87682
#	111890
#	159275
#	228151
#
# Disc length: 3700 seconds
#
# Revision: 0
# Processed by: cddbd v1.5.2PL0 Copyright (c) Steve Scherf et al.
# Submitted via: CDex 1.51
#
DISCID=4f0e7207
DTITLE=Joe Zawinul - Joe Zawinul
DYEAR=2007
DGENRE=Jazz
TTITLE0=Joe Zawinul - Mercy, Mercy, Mercy
TTITLE1=Joe Zawinul - Cucumber Slumber
TTITLE2=Joe Zawinul - Birdland
TTITLE3=Joe Zawinul - In A Silent Way
TTITLE4=Joe Zawinul - Brown Street
TTITLE5=Joe Zawinul - Carnavalito
TTITLE6=Joe Zawinul - Brown Street
EXTD=YEAR: 2007
EXTT0=
EXTT1=
EXTT2=
EXTT3=
EXTT4=
EXTT5=
EXTT6=
PLAYORDER=
